# xmcd
#
# Track frame offsets: 
#        150
#        19730
#        36842
#        63570
#        72904
#        97213
#        111612
#        132949
#        148864
#        157920
#
# Disc length: 2370 seconds
#
# Revision: 0
# Processed by: cddbd v1.5.2PL0 Copyright (c) Steve Scherf et al.
# Submitted via: ExactAudioCopy v1.0b1
#
DISCID=9609400a
DTITLE=Troy Allan - Party at the Bottom of the Pool
DYEAR=2011
DGENRE=TropRock
TTITLE0=Party at the Bottom of the Pool
TTITLE1=Keys to Life
TTITLE2=Life on I-10
TTITLE3=Could You Be More Pacific
TTITLE4=Two Nights in a Row
TTITLE5=One Day After You
TTITLE6=I Wish
TTITLE7=Call to Arms
TTITLE8=Bourbon Blues
TTITLE9=Destiny UnKnown
EXTD=
EXTT0=
EXTT1=
EXTT2=
EXTT3=
EXTT4=
EXTT5=
EXTT6=
EXTT7=
EXTT8=
EXTT9=
PLAYORDER=
